<svg width="80%" height="62" viewBox="0 0 255 62" fill="none" xmlns="http://www.w3.org/2000/svg">
<path d="M55.0879 54.5635C53.9622 54.2399 53.1419 53.8434 52.627 53.374C52.1165 52.9001 51.8613 52.3167 51.8613 51.624C51.8613 50.8402 52.1735 50.193 52.7979 49.6826C53.4268 49.1676 54.2425 48.9102 55.2451 48.9102C55.9287 48.9102 56.5371 49.0423 57.0703 49.3066C57.6081 49.571 58.0228 49.9355 58.3145 50.4004C58.6107 50.8652 58.7588 51.3734 58.7588 51.9248H57.4395C57.4395 51.3232 57.248 50.8516 56.8652 50.5098C56.4824 50.1634 55.9424 49.9902 55.2451 49.9902C54.598 49.9902 54.0921 50.1338 53.7275 50.4209C53.3675 50.7035 53.1875 51.0977 53.1875 51.6035C53.1875 52.0091 53.3584 52.3532 53.7002 52.6357C54.0465 52.9137 54.6322 53.1689 55.457 53.4014C56.2865 53.6338 56.9336 53.8913 57.3984 54.1738C57.8678 54.4518 58.2142 54.7777 58.4375 55.1514C58.6654 55.5251 58.7793 55.9648 58.7793 56.4707C58.7793 57.2773 58.4648 57.9245 57.8359 58.4121C57.207 58.8952 56.3662 59.1367 55.3135 59.1367C54.6299 59.1367 53.9919 59.0068 53.3994 58.7471C52.807 58.4827 52.349 58.1227 52.0254 57.667C51.7064 57.2113 51.5469 56.694 51.5469 56.1152H52.8662C52.8662 56.7168 53.0872 57.193 53.5293 57.5439C53.9759 57.8903 54.5706 58.0635 55.3135 58.0635C56.0062 58.0635 56.5371 57.9222 56.9062 57.6396C57.2754 57.3571 57.46 56.972 57.46 56.4844C57.46 55.9967 57.2891 55.6208 56.9473 55.3564C56.6055 55.0876 55.9857 54.8232 55.0879 54.5635ZM62.334 55.5752L61.541 56.4023V59H60.2764V48.5H61.541V54.8506L62.2178 54.0371L64.5215 51.6035H66.0596L63.1816 54.6934L66.3945 59H64.9111L62.334 55.5752ZM69.7852 57.1475L71.5078 51.6035H72.8613L69.8877 60.1416C69.4274 61.3721 68.696 61.9873 67.6934 61.9873L67.4541 61.9668L66.9824 61.8779V60.8525L67.3242 60.8799C67.7526 60.8799 68.0853 60.7933 68.3223 60.6201C68.5638 60.4469 68.762 60.1302 68.917 59.6699L69.1973 58.918L66.5586 51.6035H67.9395L69.7852 57.1475ZM78.8428 59H77.5781V51.6035H78.8428V59ZM77.4756 49.6416C77.4756 49.4365 77.5371 49.2633 77.6602 49.1221C77.7878 48.9808 77.9746 48.9102 78.2207 48.9102C78.4668 48.9102 78.6536 48.9808 78.7812 49.1221C78.9089 49.2633 78.9727 49.4365 78.9727 49.6416C78.9727 49.8467 78.9089 50.0176 78.7812 50.1543C78.6536 50.291 78.4668 50.3594 78.2207 50.3594C77.9746 50.3594 77.7878 50.291 77.6602 50.1543C77.5371 50.0176 77.4756 49.8467 77.4756 49.6416ZM85.1797 57.0381C85.1797 56.6963 85.0498 56.432 84.79 56.2451C84.5348 56.0537 84.0859 55.8896 83.4434 55.7529C82.8053 55.6162 82.2972 55.4521 81.9189 55.2607C81.5452 55.0693 81.2673 54.8415 81.085 54.5771C80.9072 54.3128 80.8184 53.9984 80.8184 53.6338C80.8184 53.0277 81.0736 52.515 81.584 52.0957C82.099 51.6764 82.7552 51.4668 83.5527 51.4668C84.3913 51.4668 85.0703 51.6833 85.5898 52.1162C86.1139 52.5492 86.376 53.1029 86.376 53.7773H85.1045C85.1045 53.431 84.9564 53.1325 84.6602 52.8818C84.3685 52.6312 83.9993 52.5059 83.5527 52.5059C83.0924 52.5059 82.7324 52.6061 82.4727 52.8066C82.2129 53.0072 82.083 53.2692 82.083 53.5928C82.083 53.8981 82.2038 54.1283 82.4453 54.2832C82.6868 54.4382 83.1221 54.5863 83.751 54.7275C84.3844 54.8688 84.8971 55.0374 85.2891 55.2334C85.681 55.4294 85.9704 55.6663 86.1572 55.9443C86.3486 56.2178 86.4443 56.5527 86.4443 56.9492C86.4443 57.61 86.18 58.141 85.6514 58.542C85.1227 58.9385 84.4368 59.1367 83.5938 59.1367C83.0013 59.1367 82.4772 59.0319 82.0215 58.8223C81.5658 58.6126 81.208 58.321 80.9482 57.9473C80.693 57.569 80.5654 57.1611 80.5654 56.7236H81.8301C81.8529 57.1475 82.0215 57.4847 82.3359 57.7354C82.6549 57.9814 83.0742 58.1045 83.5938 58.1045C84.0723 58.1045 84.4551 58.0088 84.7422 57.8174C85.0339 57.6214 85.1797 57.3617 85.1797 57.0381ZM92.7607 51.6035L92.8018 52.5332C93.3669 51.8223 94.1051 51.4668 95.0166 51.4668C96.5798 51.4668 97.3682 52.3486 97.3818 54.1123V59H96.1172V54.1055C96.1126 53.5723 95.9896 53.1781 95.748 52.9229C95.5111 52.6676 95.1396 52.54 94.6338 52.54C94.2236 52.54 93.8636 52.6494 93.5537 52.8682C93.2438 53.0869 93.0023 53.374 92.8291 53.7295V59H91.5645V51.6035H92.7607ZM98.9541 55.2334C98.9541 54.5088 99.0954 53.8571 99.3779 53.2783C99.665 52.6995 100.062 52.2529 100.567 51.9385C101.078 51.624 101.659 51.4668 102.311 51.4668C103.318 51.4668 104.131 51.8154 104.751 52.5127C105.375 53.21 105.688 54.1374 105.688 55.2949V55.3838C105.688 56.1038 105.549 56.751 105.271 57.3252C104.997 57.8949 104.603 58.3392 104.088 58.6582C103.577 58.9772 102.99 59.1367 102.324 59.1367C101.322 59.1367 100.508 58.7881 99.8838 58.0908C99.264 57.3936 98.9541 56.4707 98.9541 55.3223V55.2334ZM100.226 55.3838C100.226 56.2041 100.415 56.8626 100.793 57.3594C101.176 57.8561 101.686 58.1045 102.324 58.1045C102.967 58.1045 103.477 57.8538 103.855 57.3525C104.234 56.8467 104.423 56.1403 104.423 55.2334C104.423 54.4222 104.229 53.766 103.842 53.2646C103.459 52.7588 102.949 52.5059 102.311 52.5059C101.686 52.5059 101.183 52.7542 100.8 53.251C100.417 53.7477 100.226 54.4587 100.226 55.3838ZM112.12 59H110.855V48.5H112.12V59ZM113.815 55.2334C113.815 54.5088 113.957 53.8571 114.239 53.2783C114.526 52.6995 114.923 52.2529 115.429 51.9385C115.939 51.624 116.52 51.4668 117.172 51.4668C118.179 51.4668 118.993 51.8154 119.612 52.5127C120.237 53.21 120.549 54.1374 120.549 55.2949V55.3838C120.549 56.1038 120.41 56.751 120.132 57.3252C119.858 57.8949 119.464 58.3392 118.949 58.6582C118.439 58.9772 117.851 59.1367 117.186 59.1367C116.183 59.1367 115.369 58.7881 114.745 58.0908C114.125 57.3936 113.815 56.4707 113.815 55.3223V55.2334ZM115.087 55.3838C115.087 56.2041 115.276 56.8626 115.654 57.3594C116.037 57.8561 116.548 58.1045 117.186 58.1045C117.828 58.1045 118.339 57.8538 118.717 57.3525C119.095 56.8467 119.284 56.1403 119.284 55.2334C119.284 54.4222 119.09 53.766 118.703 53.2646C118.32 52.7588 117.81 52.5059 117.172 52.5059C116.548 52.5059 116.044 52.7542 115.661 53.251C115.278 53.7477 115.087 54.4587 115.087 55.3838ZM123.331 51.6035L123.372 52.5332C123.937 51.8223 124.675 51.4668 125.587 51.4668C127.15 51.4668 127.938 52.3486 127.952 54.1123V59H126.688V54.1055C126.683 53.5723 126.56 53.1781 126.318 52.9229C126.081 52.6676 125.71 52.54 125.204 52.54C124.794 52.54 124.434 52.6494 124.124 52.8682C123.814 53.0869 123.573 53.374 123.399 53.7295V59H122.135V51.6035H123.331ZM129.559 55.2402C129.559 54.0872 129.825 53.1712 130.358 52.4922C130.892 51.8086 131.598 51.4668 132.478 51.4668C133.38 51.4668 134.084 51.7858 134.59 52.4238L134.651 51.6035H135.807V58.8223C135.807 59.7793 135.522 60.5335 134.952 61.085C134.387 61.6364 133.626 61.9121 132.669 61.9121C132.136 61.9121 131.614 61.7982 131.104 61.5703C130.593 61.3424 130.203 61.0303 129.935 60.6338L130.591 59.875C131.133 60.5449 131.796 60.8799 132.58 60.8799C133.195 60.8799 133.674 60.7067 134.016 60.3604C134.362 60.014 134.535 59.5264 134.535 58.8975V58.2617C134.029 58.8451 133.339 59.1367 132.464 59.1367C131.598 59.1367 130.896 58.7881 130.358 58.0908C129.825 57.3936 129.559 56.4434 129.559 55.2402ZM130.83 55.3838C130.83 56.2178 131.001 56.874 131.343 57.3525C131.685 57.8265 132.163 58.0635 132.778 58.0635C133.576 58.0635 134.161 57.7012 134.535 56.9766V53.5996C134.148 52.8932 133.567 52.54 132.792 52.54C132.177 52.54 131.696 52.7793 131.35 53.2578C131.003 53.7363 130.83 54.445 130.83 55.3838ZM140.79 59.1367C139.787 59.1367 138.972 58.8086 138.343 58.1523C137.714 57.4915 137.399 56.6097 137.399 55.5068V55.2744C137.399 54.5407 137.538 53.8867 137.816 53.3125C138.099 52.7337 138.491 52.2826 138.992 51.959C139.498 51.6309 140.045 51.4668 140.633 51.4668C141.594 51.4668 142.342 51.7835 142.875 52.417C143.408 53.0505 143.675 53.9574 143.675 55.1377V55.6641H138.664C138.682 56.3932 138.894 56.9834 139.3 57.4346C139.71 57.8812 140.229 58.1045 140.858 58.1045C141.305 58.1045 141.683 58.0133 141.993 57.8311C142.303 57.6488 142.574 57.4072 142.807 57.1064L143.579 57.708C142.959 58.6605 142.03 59.1367 140.79 59.1367ZM140.633 52.5059C140.122 52.5059 139.694 52.6927 139.348 53.0664C139.001 53.4355 138.787 53.9551 138.705 54.625H142.41V54.5293C142.374 53.8867 142.201 53.39 141.891 53.0391C141.581 52.6836 141.161 52.5059 140.633 52.5059ZM148.72 52.7383C148.528 52.7064 148.321 52.6904 148.098 52.6904C147.268 52.6904 146.705 53.0436 146.409 53.75V59H145.145V51.6035H146.375L146.396 52.458C146.81 51.7972 147.398 51.4668 148.159 51.4668C148.405 51.4668 148.592 51.4987 148.72 51.5625V52.7383ZM155.077 49.8125V51.6035H156.458V52.5811H155.077V57.168C155.077 57.4642 155.139 57.6875 155.262 57.8379C155.385 57.9837 155.594 58.0566 155.891 58.0566C156.036 58.0566 156.237 58.0293 156.492 57.9746V59C156.16 59.0911 155.836 59.1367 155.521 59.1367C154.956 59.1367 154.53 58.9658 154.243 58.624C153.956 58.2822 153.812 57.7969 153.812 57.168V52.5811H152.466V51.6035H153.812V49.8125H155.077ZM159.206 52.499C159.767 51.8109 160.496 51.4668 161.394 51.4668C162.957 51.4668 163.745 52.3486 163.759 54.1123V59H162.494V54.1055C162.49 53.5723 162.367 53.1781 162.125 52.9229C161.888 52.6676 161.517 52.54 161.011 52.54C160.601 52.54 160.241 52.6494 159.931 52.8682C159.621 53.0869 159.379 53.374 159.206 53.7295V59H157.941V48.5H159.206V52.499ZM168.722 59.1367C167.719 59.1367 166.903 58.8086 166.274 58.1523C165.646 57.4915 165.331 56.6097 165.331 55.5068V55.2744C165.331 54.5407 165.47 53.8867 165.748 53.3125C166.031 52.7337 166.423 52.2826 166.924 51.959C167.43 51.6309 167.977 51.4668 168.564 51.4668C169.526 51.4668 170.273 51.7835 170.807 52.417C171.34 53.0505 171.606 53.9574 171.606 55.1377V55.6641H166.596C166.614 56.3932 166.826 56.9834 167.231 57.4346C167.642 57.8812 168.161 58.1045 168.79 58.1045C169.237 58.1045 169.615 58.0133 169.925 57.8311C170.235 57.6488 170.506 57.4072 170.738 57.1064L171.511 57.708C170.891 58.6605 169.961 59.1367 168.722 59.1367ZM168.564 52.5059C168.054 52.5059 167.626 52.6927 167.279 53.0664C166.933 53.4355 166.719 53.9551 166.637 54.625H170.342V54.5293C170.305 53.8867 170.132 53.39 169.822 53.0391C169.512 52.6836 169.093 52.5059 168.564 52.5059ZM177.923 59H176.658V48.5H177.923V59ZM181.327 59H180.062V51.6035H181.327V59ZM179.96 49.6416C179.96 49.4365 180.021 49.2633 180.145 49.1221C180.272 48.9808 180.459 48.9102 180.705 48.9102C180.951 48.9102 181.138 48.9808 181.266 49.1221C181.393 49.2633 181.457 49.4365 181.457 49.6416C181.457 49.8467 181.393 50.0176 181.266 50.1543C181.138 50.291 180.951 50.3594 180.705 50.3594C180.459 50.3594 180.272 50.291 180.145 50.1543C180.021 50.0176 179.96 49.8467 179.96 49.6416ZM184.547 51.6035L184.581 52.4238C185.123 51.7858 185.855 51.4668 186.775 51.4668C187.81 51.4668 188.514 51.8633 188.888 52.6562C189.134 52.3008 189.453 52.0137 189.845 51.7949C190.241 51.5762 190.708 51.4668 191.246 51.4668C192.868 51.4668 193.693 52.3258 193.721 54.0439V59H192.456V54.1191C192.456 53.5905 192.335 53.1963 192.094 52.9365C191.852 52.6722 191.447 52.54 190.877 52.54C190.408 52.54 190.018 52.6813 189.708 52.9639C189.398 53.2419 189.218 53.6178 189.168 54.0918V59H187.896V54.1533C187.896 53.0778 187.37 52.54 186.317 52.54C185.488 52.54 184.921 52.8932 184.615 53.5996V59H183.351V51.6035H184.547ZM197.009 59H195.744V51.6035H197.009V59ZM195.642 49.6416C195.642 49.4365 195.703 49.2633 195.826 49.1221C195.954 48.9808 196.141 48.9102 196.387 48.9102C196.633 48.9102 196.82 48.9808 196.947 49.1221C197.075 49.2633 197.139 49.4365 197.139 49.6416C197.139 49.8467 197.075 50.0176 196.947 50.1543C196.82 50.291 196.633 50.3594 196.387 50.3594C196.141 50.3594 195.954 50.291 195.826 50.1543C195.703 50.0176 195.642 49.8467 195.642 49.6416ZM200.755 49.8125V51.6035H202.136V52.5811H200.755V57.168C200.755 57.4642 200.816 57.6875 200.939 57.8379C201.062 57.9837 201.272 58.0566 201.568 58.0566C201.714 58.0566 201.915 58.0293 202.17 57.9746V59C201.837 59.0911 201.514 59.1367 201.199 59.1367C200.634 59.1367 200.208 58.9658 199.921 58.624C199.634 58.2822 199.49 57.7969 199.49 57.168V52.5811H198.144V51.6035H199.49V49.8125H200.755Z" fill="white"/>
<path d="M0 34.35V4.23H7.31V34.35H0ZM8.47 30.05V15.45L13.62 4.24001H21.26L8.47 30.05ZM21.6 34.32H13.67L11.18 27.32L15.53 18.4L21.6 34.32Z" fill="white"/>
<path d="M22.75 34.35V4.23H30.09V34.35H22.75ZM31.25 34.35V28.35H34.89V24.54H41.55V34.37L31.25 34.35Z" fill="white"/>
<path d="M51.12 21.98V34.35H43.78V4.23H51.12V16.17H58.12V21.98H51.12ZM52.31 10.05V4.22H63.75V12.94H56.85V10.05H52.31ZM52.31 34.34V28.34H56.41V25.34H63.75V34.34H52.31Z" fill="white"/>
<path d="M74.31 34.35H71.31L66.89 28.35V10.25L71.31 4.25H74.31V34.35ZM75.47 10.25V4.25H83.29L87.69 10.25V16.31H80.31V10.25H75.47ZM75.47 34.35V28.35H80.31V23.95H87.65V28.35L83.25 34.35H75.47Z" fill="white"/>
<path d="M90.1 28.72L104.49 4.23H109.49V10.05L94.93 34.35H90.1V28.72ZM90.55 4.23H103.05L98.88 10.81H90.55V4.23ZM109.18 34.35H96.41L100.59 27.75H109.17L109.18 34.35Z" fill="white"/>
<path d="M119.62 21.98V34.35H112.31V4.23H119.65V16.17H126.65V21.98H119.62ZM120.78 10.05V4.22H132.25V12.94H125.31V10.05H120.78ZM120.78 34.34V28.34H124.91V25.34H132.25V34.34H120.78Z" fill="white"/>
<path d="M143.94 20.78L146.15 8.14L149.02 22.44L146.65 34.36H139.99L133.4 4.24001H140.7L143.94 20.78ZM159.51 34.35H152.51L146.51 4.23H153.91L159.51 34.35ZM159.58 4.23H166.31L160.31 32.78L157.31 16.78L159.58 4.23Z" fill="white"/>
<path d="M187.36 0H184.26V3.1H187.36V0Z" fill="#D4A615"/>
<path d="M190.36 0H187.26V3.1H190.36V0Z" fill="#D4A615"/>
<path d="M190.36 3H187.26V6.1H190.36V3Z" fill="#D4A615"/>
<path d="M187.36 3H184.26V6.1H187.36V3Z" fill="#D4A615"/>
<path d="M180.36 0H177.26V3.1H180.36V0Z" fill="#D4A615"/>
<path d="M183.36 0H180.26V3.1H183.36V0Z" fill="#D4A615"/>
<path d="M183.36 3H180.26V6.1H183.36V3Z" fill="#D4A615"/>
<path d="M180.36 3H177.26V6.1H180.36V3Z" fill="#D4A615"/>
<path d="M173.36 0H170.26V3.1H173.36V0Z" fill="#D4A615"/>
<path d="M176.36 0H173.26V3.1H176.36V0Z" fill="#D4A615"/>
<path d="M176.36 3H173.26V6.1H176.36V3Z" fill="#D4A615"/>
<path d="M173.36 3H170.26V6.1H173.36V3Z" fill="#D4A615"/>
<path d="M173.36 7H170.26V10.1H173.36V7Z" fill="#D4A615"/>
<path d="M176.36 7H173.26V10.1H176.36V7Z" fill="#D4A615"/>
<path d="M176.36 10H173.26V13.1H176.36V10Z" fill="#D4A615"/>
<path d="M173.36 10H170.26V13.1H173.36V10Z" fill="#D4A615"/>
<path d="M173.36 14H170.26V17.1H173.36V14Z" fill="#D4A615"/>
<path d="M176.36 14H173.26V17.1H176.36V14Z" fill="#D4A615"/>
<path d="M176.36 17H173.26V20.1H176.36V17Z" fill="#D4A615"/>
<path d="M173.36 17H170.26V20.1H173.36V17Z" fill="#D4A615"/>
<path d="M180.36 14H177.26V17.1H180.36V14Z" fill="#D4A615"/>
<path d="M183.36 14H180.26V17.1H183.36V14Z" fill="#D4A615"/>
<path d="M183.36 17H180.26V20.1H183.36V17Z" fill="#D4A615"/>
<path d="M180.36 17H177.26V20.1H180.36V17Z" fill="#D4A615"/>
<path d="M187.36 14H184.26V17.1H187.36V14Z" fill="#D4A615"/>
<path d="M190.36 14H187.26V17.1H190.36V14Z" fill="#D4A615"/>
<path d="M190.36 17H187.26V20.1H190.36V17Z" fill="#D4A615"/>
<path d="M187.36 17H184.26V20.1H187.36V17Z" fill="#D4A615"/>
<path d="M187.36 21H184.26V24.1H187.36V21Z" fill="#D4A615"/>
<path d="M190.36 21H187.26V24.1H190.36V21Z" fill="#D4A615"/>
<path d="M190.36 24H187.26V27.1H190.36V24Z" fill="#D4A615"/>
<path d="M187.36 24H184.26V27.1H187.36V24Z" fill="#D4A615"/>
<path d="M187.36 28H184.26V31.1H187.36V28Z" fill="#D4A615"/>
<path d="M190.36 28H187.26V31.1H190.36V28Z" fill="#D4A615"/>
<path d="M190.36 31H187.26V34.1H190.36V31Z" fill="#D4A615"/>
<path d="M187.36 31H184.26V34.1H187.36V31Z" fill="#D4A615"/>
<path d="M180.36 28H177.26V31.1H180.36V28Z" fill="#D4A615"/>
<path d="M183.36 28H180.26V31.1H183.36V28Z" fill="#D4A615"/>
<path d="M183.36 31H180.26V34.1H183.36V31Z" fill="#D4A615"/>
<path d="M180.36 31H177.26V34.1H180.36V31Z" fill="#D4A615"/>
<path d="M173.36 28H170.26V31.1H173.36V28Z" fill="#D4A615"/>
<path d="M176.36 28H173.26V31.1H176.36V28Z" fill="#D4A615"/>
<path d="M176.36 31H173.26V34.1H176.36V31Z" fill="#D4A615"/>
<path d="M173.36 31H170.26V34.1H173.36V31Z" fill="#D4A615"/>
<path d="M197.36 0H194.26V3.1H197.36V0Z" fill="#D4A615"/>
<path d="M200.36 0H197.26V3.1H200.36V0Z" fill="#D4A615"/>
<path d="M200.36 3H197.26V6.1H200.36V3Z" fill="#D4A615"/>
<path d="M197.36 3H194.26V6.1H197.36V3Z" fill="#D4A615"/>
<path d="M197.36 7H194.26V10.1H197.36V7Z" fill="#D4A615"/>
<path d="M200.36 7H197.26V10.1H200.36V7Z" fill="#D4A615"/>
<path d="M200.36 10H197.26V13.1H200.36V10Z" fill="#D4A615"/>
<path d="M197.36 10H194.26V13.1H197.36V10Z" fill="#D4A615"/>
<path d="M197.36 14H194.26V17.1H197.36V14Z" fill="#D4A615"/>
<path d="M200.36 14H197.26V17.1H200.36V14Z" fill="#D4A615"/>
<path d="M200.36 17H197.26V20.1H200.36V17Z" fill="#D4A615"/>
<path d="M197.36 17H194.26V20.1H197.36V17Z" fill="#D4A615"/>
<path d="M204.36 14H201.26V17.1H204.36V14Z" fill="#D4A615"/>
<path d="M207.36 14H204.26V17.1H207.36V14Z" fill="#D4A615"/>
<path d="M207.36 17H204.26V20.1H207.36V17Z" fill="#D4A615"/>
<path d="M204.36 17H201.26V20.1H204.36V17Z" fill="#D4A615"/>
<path d="M210.36 21H207.26V24.1H210.36V21Z" fill="#D4A615"/>
<path d="M213.36 21H210.26V24.1H213.36V21Z" fill="#D4A615"/>
<path d="M213.36 24H210.26V27.1H213.36V24Z" fill="#D4A615"/>
<path d="M210.36 24H207.26V27.1H210.36V24Z" fill="#D4A615"/>
<path d="M217.36 28H214.26V31.1H217.36V28Z" fill="#D4A615"/>
<path d="M220.36 28H217.26V31.1H220.36V28Z" fill="#D4A615"/>
<path d="M220.36 31H217.26V34.1H220.36V31Z" fill="#D4A615"/>
<path d="M217.36 31H214.26V34.1H217.36V31Z" fill="#D4A615"/>
<path d="M210.36 7H207.26V10.1H210.36V7Z" fill="#D4A615"/>
<path d="M213.36 7H210.26V10.1H213.36V7Z" fill="#D4A615"/>
<path d="M213.36 10H210.26V13.1H213.36V10Z" fill="#D4A615"/>
<path d="M210.36 10H207.26V13.1H210.36V10Z" fill="#D4A615"/>
<path d="M217.36 0H214.26V3.1H217.36V0Z" fill="#D4A615"/>
<path d="M220.36 0H217.26V3.1H220.36V0Z" fill="#D4A615"/>
<path d="M220.36 3H217.26V6.1H220.36V3Z" fill="#D4A615"/>
<path d="M217.36 3H214.26V6.1H217.36V3Z" fill="#D4A615"/>
<path d="M197.36 21H194.26V24.1H197.36V21Z" fill="#D4A615"/>
<path d="M200.36 21H197.26V24.1H200.36V21Z" fill="#D4A615"/>
<path d="M200.36 24H197.26V27.1H200.36V24Z" fill="#D4A615"/>
<path d="M197.36 24H194.26V27.1H197.36V24Z" fill="#D4A615"/>
<path d="M197.36 28H194.26V31.1H197.36V28Z" fill="#D4A615"/>
<path d="M200.36 28H197.26V31.1H200.36V28Z" fill="#D4A615"/>
<path d="M200.36 31H197.26V34.1H200.36V31Z" fill="#D4A615"/>
<path d="M197.36 31H194.26V34.1H197.36V31Z" fill="#D4A615"/>
<path d="M239.3 21H236.2V24.1H239.3V21Z" fill="#D4A615"/>
<path d="M242.3 21H239.2V24.1H242.3V21Z" fill="#D4A615"/>
<path d="M242.3 24H239.2V27.1H242.3V24Z" fill="#D4A615"/>
<path d="M239.3 24H236.2V27.1H239.3V24Z" fill="#D4A615"/>
<path d="M239.3 28H236.2V31.1H239.3V28Z" fill="#D4A615"/>
<path d="M242.3 28H239.2V31.1H242.3V28Z" fill="#D4A615"/>
<path d="M242.3 31H239.2V34.1H242.3V31Z" fill="#D4A615"/>
<path d="M239.3 31H236.2V34.1H239.3V31Z" fill="#D4A615"/>
<path d="M228.3 0H225.2V3.1H228.3V0Z" fill="#D4A615"/>
<path d="M231.3 0H228.2V3.1H231.3V0Z" fill="#D4A615"/>
<path d="M231.3 3H228.2V6.1H231.3V3Z" fill="#D4A615"/>
<path d="M228.3 3H225.2V6.1H228.3V3Z" fill="#D4A615"/>
<path d="M235.3 7H232.2V10.1H235.3V7Z" fill="#D4A615"/>
<path d="M238.3 7H235.2V10.1H238.3V7Z" fill="#D4A615"/>
<path d="M238.3 10H235.2V13.1H238.3V10Z" fill="#D4A615"/>
<path d="M235.3 10H232.2V13.1H235.3V10Z" fill="#D4A615"/>
<path d="M239.3 14H236.2V17.1H239.3V14Z" fill="#D4A615"/>
<path d="M242.3 14H239.2V17.1H242.3V14Z" fill="#D4A615"/>
<path d="M242.3 17H239.2V20.1H242.3V17Z" fill="#D4A615"/>
<path d="M239.3 17H236.2V20.1H239.3V17Z" fill="#D4A615"/>
<path d="M243.3 7H240.2V10.1H243.3V7Z" fill="#D4A615"/>
<path d="M246.3 7H243.2V10.1H246.3V7Z" fill="#D4A615"/>
<path d="M246.3 10H243.2V13.1H246.3V10Z" fill="#D4A615"/>
<path d="M243.3 10H240.2V13.1H243.3V10Z" fill="#D4A615"/>
<path d="M250.3 0H247.2V3.1H250.3V0Z" fill="#D4A615"/>
<path d="M253.3 0H250.2V3.1H253.3V0Z" fill="#D4A615"/>
<path d="M253.3 3H250.2V6.1H253.3V3Z" fill="#D4A615"/>
<path d="M250.3 3H247.2V6.1H250.3V3Z" fill="#D4A615"/>
</svg>
