<svg width="41" height="41" viewBox="0 0 41 41" fill="none" xmlns="http://www.w3.org/2000/svg">
<g clip-path="url(#clip0)">
<path d="M10.204 10.8734C10.8578 10.7605 11.296 10.1393 11.1834 9.4855C10.5437 5.77876 13.4031 2.40234 17.1408 2.40234C20.8672 2.40234 23.7316 5.76281 23.1007 9.4708C22.9896 10.1249 23.4294 10.7452 24.0835 10.8565C24.7376 10.9682 25.3579 10.5278 25.4692 9.8737C26.3469 4.71272 22.3637 0 17.1408 0C11.9238 0 7.92147 4.7121 8.81609 9.89403C8.92901 10.5497 9.55275 10.986 10.204 10.8734Z" fill="white"/>
<path d="M29.9223 19.2703C29.0221 17.5033 26.8778 16.7979 25.1177 17.6688C24.2994 16.0625 22.4279 15.3037 20.7268 15.8942V8.538C20.7268 6.57734 19.1512 4.93918 17.214 4.886C15.1842 4.82845 13.5023 6.4541 13.5023 8.48827V26.9929L12.0912 25.5152C10.7368 24.0972 8.46892 23.9975 7.03534 25.2934C5.52261 26.6607 5.44723 28.9889 6.84015 30.4522L14.9499 39.1022C16.0807 40.3081 17.6779 41 19.3314 41H29.1125C32.4242 41 35.1184 38.3058 35.1184 34.9941V22.5019C35.1184 19.8409 32.3116 18.0883 29.9223 19.2703ZM32.716 34.9941C32.716 36.9811 31.0994 38.5976 29.1125 38.5976H19.3314C18.3392 38.5976 17.3811 38.1825 16.7026 37.4587C16.6735 37.4281 8.61063 28.8281 8.58153 28.7975C8.11702 28.3107 8.13923 27.534 8.64597 27.0755C9.12363 26.6441 9.88969 26.6885 10.3536 27.1743L13.8345 30.8194C14.5808 31.6014 15.9043 31.0709 15.9043 29.9902V8.48827C15.9043 7.81323 16.4642 7.26833 17.1486 7.28741C17.7971 7.30524 18.3245 7.8661 18.3245 8.538C18.3245 21.7553 18.302 15.7641 18.302 22.9023C18.302 23.5677 18.8437 24.1098 19.5144 24.1029C20.1841 24.1098 20.7268 23.568 20.7268 22.9023V19.0705C20.8338 18.5168 21.3211 18.0976 21.9055 18.0976C22.5677 18.0976 23.1066 18.6366 23.1066 19.2988V22.9023C23.1066 23.5658 23.6444 24.1035 24.3078 24.1035C24.9713 24.1035 25.509 23.5658 25.509 22.9023V20.9004C25.509 20.2382 26.0479 19.6992 26.7102 19.6992C27.3724 19.6992 27.9113 20.2382 27.9113 20.9004V22.9023C27.9113 23.5658 28.449 24.1035 29.1125 24.1035C29.776 24.1035 30.3137 23.5658 30.3137 22.9023V22.5019C30.3137 21.8397 30.8526 21.3008 31.5148 21.3008C32.177 21.3008 32.716 21.8397 32.716 22.5019V34.9941Z" fill="white"/>
</g>
<defs>
<clipPath id="clip0">
<rect width="41" height="41" fill="white"/>
</clipPath>
</defs>
</svg>
