<svg xmlns="http://www.w3.org/2000/svg" xmlns:xlink="http://www.w3.org/1999/xlink" viewBox="0 0 125.37 31.04">
  <defs>
    <style>
      .cls-1 {
        fill: url(#radial-gradient);
      }

      .cls-2 {
        fill: #fff;
      }

      .cls-3 {
        fill: url(#radial-gradient-2);
      }

      .cls-4 {
        fill: #e1e5e1;
      }
    </style>
    <radialGradient id="radial-gradient" cx="73.61" cy="15.14" r="15.48" gradientUnits="userSpaceOnUse">
      <stop offset="0.02" stop-color="#00001c"/>
      <stop offset="0.75" stop-color="#000029"/>
      <stop offset="0.82" stop-color="#080734"/>
      <stop offset="0.94" stop-color="#1c1952"/>
      <stop offset="1" stop-color="#262262"/>
    </radialGradient>
    <radialGradient id="radial-gradient-2" cx="63.84" cy="6.55" fx="35.62131685460625" r="56.51" gradientUnits="userSpaceOnUse">
      <stop offset="0.08" stop-color="#262262"/>
      <stop offset="0.23" stop-color="#1d1a51"/>
      <stop offset="0.54" stop-color="#0d0c34"/>
      <stop offset="0.81" stop-color="#030322"/>
      <stop offset="1" stop-color="#00001c"/>
    </radialGradient>
  </defs>
  <title>Logo svg</title>
  <g id="Layer_2" data-name="Layer 2">
    <g id="Layer_2_copy_2" data-name="Layer 2 copy 2">
      <g>
        <circle class="cls-1" cx="73.81" cy="15.52" r="15.52"/>
        <g>
          <path class="cls-2" d="M20.44,7.89a.91.91,0,0,0-1.5,0,1.5,1.5,0,0,0-.31,1V13.6a6.87,6.87,0,0,1-.1,1.11,3.47,3.47,0,0,1-.37,1.11,5.57,5.57,0,0,1-.75,1c-2.91,3.19-4.76,1.36-5.24.48a5.23,5.23,0,0,1-.42-2.13v-3.3a1.39,1.39,0,1,0-2.78,0v3.3a5.23,5.23,0,0,1-.42,2.13c-.47.88-2.33,2.71-5.24-.48a5.57,5.57,0,0,1-.75-1,3.47,3.47,0,0,1-.37-1.11,6.87,6.87,0,0,1-.1-1.11V8.84a1.5,1.5,0,0,0-.31-1,.92.92,0,0,0-.75-.39.92.92,0,0,0-.75.39,1.49,1.49,0,0,0-.31,1V13.6a9.06,9.06,0,0,0,.26,2.13,7.72,7.72,0,0,0,.76,2A4.23,4.23,0,0,0,2.19,19c.47.37.65.5,1.26.91l6.93,3.62,6.93-3.62c.61-.41.79-.54,1.26-.91a4.23,4.23,0,0,0,1.17-1.32,7.72,7.72,0,0,0,.76-2,9.06,9.06,0,0,0,.26-2.13V8.84A1.49,1.49,0,0,0,20.44,7.89Z"/>
          <path class="cls-2" d="M22.25,13.15a1,1,0,0,1,1-1H38.15a1,1,0,1,1,0,2H23.26a1,1,0,0,1-1-1Zm2.56,8.15a2.31,2.31,0,0,1-.92-.2,2.6,2.6,0,0,1-.82-.56,2.93,2.93,0,0,1-.59-.86,2.69,2.69,0,0,1-.23-1.13V16.66a.8.8,0,0,1,.33-.76,2.1,2.1,0,0,1,1-.19H37.69a1,1,0,1,1,0,2H24.27v1a.48.48,0,0,0,.18.37.69.69,0,0,0,.47.16H38.15a1,1,0,1,1,0,2Z"/>
          <path class="cls-2" d="M41.26,13.15a1,1,0,0,1,1-1H54.85a2.76,2.76,0,0,1,1.1.22,3,3,0,0,1,.9.6,2.74,2.74,0,0,1,.61.89,2.77,2.77,0,0,1,.22,1.1,2.64,2.64,0,0,1-.18,1,3,3,0,0,1-.47.81,3,3,0,0,1,.47.81,2.58,2.58,0,0,1,.18,1,2.7,2.7,0,0,1-.22,1.09,2.77,2.77,0,0,1-.61.88,3,3,0,0,1-.9.6,2.77,2.77,0,0,1-1.1.22h-11a2.31,2.31,0,0,1-.92-.2,2.6,2.6,0,0,1-.82-.56,2.93,2.93,0,0,1-.59-.86,2.69,2.69,0,0,1-.23-1.13V16.66a.8.8,0,0,1,.33-.76,2.1,2.1,0,0,1,1-.19H55a.78.78,0,0,0,.55-.21.7.7,0,0,0,.23-.55.83.83,0,0,0-.8-.8H42.27a1,1,0,0,1-1-1Zm13.67,6.13a.78.78,0,0,0,.56-.23.73.73,0,0,0,.24-.55.72.72,0,0,0-.24-.56.8.8,0,0,0-.56-.22H43.27v1a.48.48,0,0,0,.18.37.69.69,0,0,0,.47.16Z"/>
          <path class="cls-2" d="M65.89,20.19a1.38,1.38,0,0,1-2.46-.87,1.2,1.2,0,0,1,.29-.84l7-9.48a3.84,3.84,0,0,1,3-1.51,3.77,3.77,0,0,1,1.65.38,3.39,3.39,0,0,1,1.28,1l7,9.42a2,2,0,0,1,.29.45,1.25,1.25,0,0,1,.12.54,1.39,1.39,0,0,1-1.39,1.39,1.3,1.3,0,0,1-1.1-.55l-6.76-9a6.26,6.26,0,0,0-.51-.51.84.84,0,0,0-1.25,0,3.74,3.74,0,0,0-.48.51ZM72,17.58a1.78,1.78,0,1,1,.52,1.28A1.74,1.74,0,0,1,72,17.58Z"/>
          <path class="cls-2" d="M89.94,13.15a1,1,0,0,1,1-1h12.58a2.76,2.76,0,0,1,1.1.22,3,3,0,0,1,.9.6,2.77,2.77,0,0,1,.61.88,2.82,2.82,0,0,1,0,2.18,2.77,2.77,0,0,1-.61.88,3,3,0,0,1-.9.6,2.76,2.76,0,0,1-1.1.22H92.61a.76.76,0,0,0-.46.25.76.76,0,0,0-.19.52v1.79a1,1,0,0,1-.3.71,1,1,0,0,1-.7.29,1,1,0,0,1-1-1v-2a2.66,2.66,0,0,1,.19-1,2.42,2.42,0,0,1,.54-.82,2.62,2.62,0,0,1,.8-.55,2.44,2.44,0,0,1,1-.2h11.15a.8.8,0,0,0,.56-.22.72.72,0,0,0,.24-.56.73.73,0,0,0-.24-.55.78.78,0,0,0-.56-.23H91a1,1,0,0,1-1-1Z"/>
          <path class="cls-2" d="M108.46,13.15a1,1,0,0,1,1-1h14.89a1,1,0,1,1,0,2H109.47a1,1,0,0,1-1-1ZM111,21.3a2.3,2.3,0,0,1-.92-.2,2.59,2.59,0,0,1-.82-.56,2.91,2.91,0,0,1-.59-.86,2.69,2.69,0,0,1-.23-1.13V16.66a.8.8,0,0,1,.33-.76,2.1,2.1,0,0,1,1-.19H123.9a1,1,0,1,1,0,2H110.48v1a.48.48,0,0,0,.18.37.69.69,0,0,0,.47.16h13.23a1,1,0,1,1,0,2Z"/>
        </g>
      </g>
    </g>
    <g id="Layer_2_copy_5" data-name="Layer 2 copy 5">
      <g>
        <circle class="cls-3" cx="73.81" cy="15.52" r="15.52"/>
        <path class="cls-4" d="M66.21,22a1.2,1.2,0,0,1-1,.71,1.14,1.14,0,0,1-.95-.55,2.25,2.25,0,0,1-.39-1.34,2.07,2.07,0,0,1,.28-1.14L70.89,6.79a4.22,4.22,0,0,1,1.25-1.47,2.73,2.73,0,0,1,3.26-.06,3.8,3.8,0,0,1,1.23,1.41l6.77,12.77a3,3,0,0,1,.28.61,2.31,2.31,0,0,1,.11.73,2.25,2.25,0,0,1-.39,1.34,1.14,1.14,0,0,1-.95.55,1.18,1.18,0,0,1-1.06-.75L74.9,9.7A7.81,7.81,0,0,0,74.41,9a.67.67,0,0,0-1.2,0,4.8,4.8,0,0,0-.46.69Zm5.88-3.54a2.91,2.91,0,0,1,.5-1.73,1.41,1.41,0,0,1,2.45,0,2.91,2.91,0,0,1,.5,1.73,2.91,2.91,0,0,1-.5,1.73,1.41,1.41,0,0,1-2.45,0A2.91,2.91,0,0,1,72.09,18.43Z"/>
      </g>
    </g>
  </g>
</svg>
