<svg width="263" height="65" viewBox="0 0 263 65" fill="none" xmlns="http://www.w3.org/2000/svg">
<g clip-path="url(#clip0)">
<path d="M154.838 65C172.819 65 187.396 50.4493 187.396 32.5C187.396 14.5507 172.819 0 154.838 0C136.857 0 122.28 14.5507 122.28 32.5C122.28 50.4493 136.857 65 154.838 65Z" fill="url(#paint0_radial)"/>
<path d="M42.8788 16.5222C42.7034 16.2674 42.4685 16.059 42.1944 15.915C41.9203 15.7711 41.6152 15.6958 41.3055 15.6958C40.9958 15.6958 40.6907 15.7711 40.4166 15.915C40.1425 16.059 39.9076 16.2674 39.7321 16.5222C39.2705 17.1196 39.0396 17.863 39.0818 18.6163V28.4794C39.0751 29.2586 39.0049 30.0359 38.8721 30.8038C38.747 31.6169 38.4845 32.4028 38.0959 33.1282C37.6518 33.883 37.124 34.5854 36.5225 35.2223C30.418 41.9024 26.537 38.0702 25.5301 36.2274C24.9271 34.8185 24.627 33.299 24.649 31.7671V24.8566C24.649 24.0846 24.3418 23.3443 23.795 22.7984C23.2481 22.2525 22.5065 21.9459 21.7331 21.9459C20.9598 21.9459 20.2181 22.2525 19.6712 22.7984C19.1244 23.3443 18.8172 24.0846 18.8172 24.8566V31.7671C18.8393 33.299 18.5391 34.8185 17.9361 36.2274C16.9501 38.0702 13.0483 41.9024 6.94368 35.2223C6.34218 34.5854 5.81441 33.883 5.37034 33.1282C4.98167 32.4028 4.71921 31.6169 4.59416 30.8038C4.46128 30.0359 4.39112 29.2586 4.38438 28.4794V18.5116C4.42659 17.7583 4.19575 17.0149 3.73406 16.4175C3.55631 16.1658 3.32067 15.9602 3.04692 15.8181C2.77317 15.676 2.46927 15.6015 2.16072 15.6008C1.85217 15.6015 1.54827 15.676 1.27452 15.8181C1.00076 15.9602 0.765129 16.1658 0.587376 16.4175C0.123984 17.014 -0.107061 17.758 -0.0629395 18.5116V28.4794C-0.0587774 29.9825 0.124315 31.4798 0.482486 32.9397C0.816616 34.4029 1.35321 35.8125 2.07681 37.1279C2.72137 38.1796 3.57877 39.0854 4.59416 39.7874C5.58012 40.5622 5.95772 40.8344 7.23737 41.693L21.7751 49.2735L36.3127 41.693C37.5924 40.8344 37.97 40.5622 38.956 39.7874C39.9596 39.0484 40.7959 38.1065 41.4104 37.0232C42.134 35.7078 42.6706 34.2982 43.0047 32.835C43.3629 31.3751 43.546 29.8778 43.5501 28.3747V18.5116C43.5632 17.791 43.3261 17.088 42.8788 16.5222Z" fill="white"/>
<path d="M46.6758 27.5369C46.6758 26.9816 46.8968 26.4489 47.2903 26.0562C47.6837 25.6635 48.2173 25.4429 48.7736 25.4429H80.0307C80.5871 25.4429 81.1206 25.6635 81.5141 26.0562C81.9075 26.4489 82.1285 26.9816 82.1285 27.5369C82.1285 28.0923 81.9075 28.625 81.5141 29.0177C81.1206 29.4104 80.5871 29.631 80.0307 29.631H48.7946C48.2382 29.631 47.7046 29.4104 47.3112 29.0177C46.9178 28.625 46.6968 28.0923 46.6968 27.5369H46.6758ZM52.0462 44.6036C51.3809 44.5978 50.7239 44.4552 50.1162 44.1848C49.4727 43.9079 48.8886 43.5097 48.396 43.0121C47.8789 42.4906 47.4597 41.8806 47.1583 41.2112C46.828 40.4666 46.6634 39.6592 46.6758 38.8449V34.8871C46.6347 34.5841 46.6774 34.2755 46.7995 33.995C46.9215 33.7144 47.1182 33.4726 47.3681 33.2956C48.0241 32.9933 48.7445 32.8567 49.4659 32.8978H79.0657C79.6221 32.8978 80.1557 33.1184 80.5491 33.5111C80.9425 33.9038 81.1635 34.4365 81.1635 34.9918C81.1635 35.5472 80.9425 36.0799 80.5491 36.4726C80.1557 36.8653 79.6221 37.0859 79.0657 37.0859H50.9134V39.18C50.9148 39.329 50.9495 39.4758 51.0148 39.6098C51.0801 39.7438 51.1744 39.8617 51.291 39.9548C51.5666 40.1847 51.918 40.3041 52.2769 40.2898H80.0307C80.5871 40.2898 81.1206 40.5105 81.5141 40.9032C81.9075 41.2959 82.1285 41.8285 82.1285 42.3839C82.1285 42.9393 81.9075 43.4719 81.5141 43.8647C81.1206 44.2574 80.5871 44.478 80.0307 44.478L52.0462 44.6036Z" fill="white"/>
<path d="M86.5548 27.5371C86.5548 26.9817 86.7758 26.4491 87.1693 26.0564C87.5627 25.6636 88.0962 25.443 88.6526 25.443H115.064C115.856 25.4373 116.642 25.5941 117.371 25.9037C118.072 26.2049 118.711 26.6306 119.259 27.1602C119.805 27.6906 120.24 28.3241 120.539 29.0239C120.849 29.7523 121.006 30.5362 121.001 31.3274C121.012 32.0432 120.883 32.7544 120.623 33.4214C120.385 34.0349 120.053 34.6072 119.637 35.1176C120.053 35.628 120.385 36.2004 120.623 36.8138C120.887 37.48 121.015 38.1918 121.001 38.9079C121.007 39.6925 120.85 40.4698 120.539 41.1904C120.237 41.8819 119.802 42.5079 119.259 43.0332C118.711 43.5628 118.072 43.9885 117.371 44.2897C116.642 44.5987 115.856 44.7555 115.064 44.7504H91.9881C91.3228 44.7445 90.6658 44.6019 90.0581 44.3316C89.4146 44.0546 88.8306 43.6565 88.338 43.1589C87.8208 42.6373 87.4016 42.0273 87.1003 41.358C86.77 40.6133 86.6053 39.806 86.6178 38.9917V34.8873C86.5766 34.5842 86.6194 34.2757 86.7414 33.9951C86.8635 33.7146 87.0601 33.4727 87.31 33.2958C87.966 32.9934 88.6865 32.8568 89.4078 32.8979H115.378C115.806 32.9074 116.22 32.7496 116.532 32.4582C116.693 32.3135 116.819 32.1352 116.902 31.9361C116.986 31.737 117.024 31.522 117.015 31.3064C116.999 30.8671 116.817 30.45 116.506 30.1391C116.194 29.8283 115.777 29.6468 115.337 29.6312H88.6736C88.1172 29.6312 87.5836 29.4105 87.1902 29.0178C86.7968 28.6251 86.5758 28.0925 86.5758 27.5371H86.5548ZM115.232 40.3738C115.45 40.3757 115.666 40.3341 115.868 40.2514C116.069 40.1686 116.253 40.0465 116.406 39.8921C116.567 39.7467 116.695 39.5688 116.782 39.3703C116.869 39.1717 116.912 38.957 116.91 38.7404C116.917 38.5201 116.875 38.3009 116.789 38.0983C116.702 37.8957 116.571 37.7145 116.406 37.5677C116.09 37.2674 115.668 37.1021 115.232 37.107H90.7714V39.2011C90.7729 39.3501 90.8075 39.4969 90.8728 39.6309C90.9381 39.7649 91.0324 39.8828 91.149 39.9759C91.4246 40.2058 91.776 40.3252 92.1349 40.3109L115.232 40.3738Z" fill="white"/>
<path d="M138.223 42.2793C137.848 42.75 137.335 43.0922 136.756 43.2581C136.177 43.4241 135.561 43.4055 134.992 43.2049C134.424 43.0044 133.933 42.6319 133.587 42.1394C133.241 41.6469 133.058 41.0589 133.063 40.4574C133.033 39.815 133.25 39.1854 133.671 38.6984L148.356 18.8466C149.096 17.8781 150.047 17.0901 151.138 16.5424C152.228 15.9946 153.429 15.7013 154.649 15.6846C155.848 15.6844 157.032 15.9565 158.11 16.4803C159.162 16.9508 160.084 17.6695 160.796 18.5744L175.48 38.3006C175.724 38.586 175.929 38.903 176.089 39.2429C176.256 39.5963 176.342 39.9827 176.34 40.3737C176.34 41.1457 176.033 41.886 175.486 42.4319C174.939 42.9778 174.198 43.2844 173.424 43.2844C172.974 43.2975 172.528 43.1992 172.125 42.9982C171.723 42.7972 171.376 42.4999 171.117 42.1327L156.936 23.2861C156.6 22.9098 156.243 22.5532 155.866 22.2181C155.701 22.0344 155.498 21.8874 155.273 21.7869C155.047 21.6863 154.802 21.6343 154.555 21.6343C154.307 21.6343 154.063 21.6863 153.837 21.7869C153.611 21.8874 153.409 22.0344 153.244 22.2181C152.875 22.5418 152.538 22.8994 152.237 23.2861L138.223 42.2793ZM151.041 36.8138C151.052 35.9533 151.361 35.1232 151.915 34.4642C152.469 33.8052 153.235 33.3579 154.082 33.1983C154.929 33.0386 155.805 33.1764 156.562 33.5883C157.319 34.0002 157.91 34.6609 158.234 35.4581C158.559 36.2553 158.597 37.14 158.342 37.9621C158.087 38.7842 157.556 39.493 156.837 39.9683C156.119 40.4436 155.257 40.656 154.4 40.5696C153.542 40.4832 152.741 40.1032 152.132 39.4942C151.776 39.1454 151.496 38.7277 151.308 38.2667C151.121 37.8057 151.03 37.3112 151.041 36.8138Z" fill="white"/>
<path d="M188.675 27.5371C188.675 26.9817 188.896 26.4491 189.29 26.0564C189.683 25.6636 190.217 25.443 190.773 25.443H217.163C217.956 25.4373 218.741 25.5941 219.471 25.9037C220.171 26.2049 220.811 26.6306 221.359 27.1602C221.901 27.6855 222.336 28.3115 222.638 29.0029C222.942 29.7258 223.098 30.5017 223.098 31.2855C223.098 32.0692 222.942 32.8452 222.638 33.568C222.336 34.2595 221.901 34.8855 221.359 35.4108C220.811 35.9404 220.171 36.3661 219.471 36.6673C218.741 36.9769 217.956 37.1337 217.163 37.1279H194.276C193.903 37.1829 193.561 37.3684 193.311 37.6515C193.046 37.9515 192.904 38.3403 192.913 38.7404V42.4888C192.912 42.7658 192.855 43.0399 192.747 43.2951C192.639 43.5503 192.482 43.7816 192.283 43.9756C191.893 44.3624 191.365 44.5805 190.815 44.5828C190.259 44.5828 189.725 44.3622 189.332 43.9695C188.938 43.5768 188.717 43.0442 188.717 42.4888V38.3006C188.714 37.5835 188.849 36.8725 189.116 36.2066C189.372 35.5629 189.757 34.9785 190.249 34.4894C190.731 34.0045 191.3 33.6139 191.927 33.3377C192.589 33.0521 193.304 32.9094 194.025 32.9189H217.415C217.852 32.9237 218.273 32.7585 218.59 32.4582C218.754 32.3113 218.885 32.1302 218.972 31.9276C219.059 31.725 219.1 31.5058 219.093 31.2855C219.096 31.0689 219.052 30.8541 218.966 30.6556C218.879 30.457 218.751 30.2791 218.59 30.1337C218.436 29.9794 218.253 29.8572 218.051 29.7745C217.849 29.6918 217.633 29.6502 217.415 29.6521H190.899C190.343 29.6521 189.809 29.4315 189.416 29.0388C189.022 28.6461 188.801 28.1134 188.801 27.558L188.675 27.5371Z" fill="white"/>
<path d="M227.526 27.5369C227.526 26.9816 227.747 26.4489 228.141 26.0562C228.534 25.6635 229.068 25.4429 229.624 25.4429H260.86C261.417 25.4429 261.95 25.6635 262.344 26.0562C262.737 26.4489 262.958 26.9816 262.958 27.5369C262.958 28.0923 262.737 28.625 262.344 29.0177C261.95 29.4104 261.417 29.631 260.86 29.631H229.645C229.089 29.631 228.555 29.4104 228.162 29.0177C227.768 28.625 227.547 28.0923 227.547 27.5369H227.526ZM232.855 44.6036C232.189 44.5984 231.532 44.4558 230.925 44.1848C230.281 43.9083 229.697 43.5101 229.205 43.0121C228.687 42.4911 228.267 41.881 227.967 41.2112C227.637 40.4666 227.472 39.6592 227.484 38.8449V34.8871C227.443 34.5841 227.486 34.2755 227.608 33.995C227.73 33.7144 227.927 33.4726 228.177 33.2956C228.833 32.9933 229.553 32.8567 230.274 32.8978H259.916C260.473 32.8978 261.006 33.1184 261.4 33.5111C261.793 33.9038 262.014 34.4365 262.014 34.9918C262.014 35.5472 261.793 36.0799 261.4 36.4726C261.006 36.8653 260.473 37.0859 259.916 37.0859H231.764V39.18C231.765 39.329 231.8 39.4758 231.865 39.6098C231.931 39.7438 232.025 39.8617 232.141 39.9548C232.417 40.1847 232.769 40.3041 233.127 40.2898H260.881C261.438 40.2898 261.971 40.5105 262.365 40.9032C262.758 41.2959 262.979 41.8285 262.979 42.3839C262.979 42.9393 262.758 43.4719 262.365 43.8647C261.971 44.2574 261.438 44.478 260.881 44.478L232.855 44.6036Z" fill="white"/>
<path d="M154.838 65C172.819 65 187.396 50.4493 187.396 32.5C187.396 14.5507 172.819 0 154.838 0C136.857 0 122.28 14.5507 122.28 32.5C122.28 50.4493 136.857 65 154.838 65Z" fill="url(#paint1_radial)"/>
<path d="M138.895 46.0698C138.711 46.483 138.42 46.8393 138.05 47.1009C137.681 47.3626 137.248 47.52 136.797 47.5566C136.394 47.5476 136.001 47.4373 135.652 47.2359C135.304 47.0346 135.012 46.7487 134.804 46.4049C134.24 45.5797 133.954 44.5971 133.986 43.5988C133.947 42.7631 134.151 41.934 134.573 41.2116L148.712 14.219C149.337 13.0045 150.234 11.9508 151.335 11.1407C152.309 10.3881 153.501 9.9694 154.733 9.94677C155.965 9.92413 157.172 10.2988 158.173 11.015C159.267 11.7692 160.154 12.7842 160.754 13.9677L174.956 40.709C175.199 41.1115 175.396 41.54 175.543 41.9864C175.702 42.4803 175.78 42.9964 175.774 43.515C175.806 44.5133 175.519 45.4959 174.956 46.3211C174.747 46.665 174.456 46.9508 174.107 47.1522C173.759 47.3535 173.365 47.4638 172.963 47.4728C172.479 47.4568 172.01 47.2995 171.615 47.0203C171.22 46.7412 170.915 46.3525 170.739 45.9023L157.125 20.3127C156.809 19.8057 156.466 19.3164 156.097 18.8469C155.98 18.613 155.801 18.4162 155.578 18.2787C155.356 18.1411 155.1 18.0682 154.838 18.0682C154.576 18.0682 154.32 18.1411 154.098 18.2787C153.875 18.4162 153.696 18.613 153.579 18.8469C153.216 19.2998 152.894 19.7832 152.614 20.2918L138.895 46.0698ZM151.23 38.6568C151.187 37.3689 151.554 36.1005 152.279 35.034C152.537 34.5813 152.911 34.205 153.362 33.9432C153.814 33.6814 154.326 33.5435 154.848 33.5435C155.37 33.5435 155.883 33.6814 156.334 33.9432C156.786 34.205 157.16 34.5813 157.418 35.034C158.143 36.1005 158.51 37.3689 158.467 38.6568C158.51 39.9447 158.143 41.213 157.418 42.2795C157.16 42.7322 156.786 43.1086 156.334 43.3704C155.883 43.6322 155.37 43.7701 154.848 43.7701C154.326 43.7701 153.814 43.6322 153.362 43.3704C152.911 43.1086 152.537 42.7322 152.279 42.2795C151.541 41.1955 151.173 39.9031 151.23 38.594V38.6568Z" fill="#E1E5E1"/>
</g>
<defs>
<radialGradient id="paint0_radial" cx="0" cy="0" r="1" gradientUnits="userSpaceOnUse" gradientTransform="translate(154.418 31.7043) scale(32.4738 32.4162)">
<stop offset="0.02" stop-color="#00001C"/>
<stop offset="0.75" stop-color="#000029"/>
<stop offset="0.82" stop-color="#080734"/>
<stop offset="0.94" stop-color="#1C1952"/>
<stop offset="1" stop-color="#262262"/>
</radialGradient>
<radialGradient id="paint1_radial" cx="0" cy="0" r="1" gradientUnits="userSpaceOnUse" gradientTransform="translate(133.923 13.7162) scale(118.546 118.336)">
<stop offset="0.08" stop-color="#262262"/>
<stop offset="0.23" stop-color="#1D1A51"/>
<stop offset="0.54" stop-color="#0D0C34"/>
<stop offset="0.81" stop-color="#030322"/>
<stop offset="1" stop-color="#00001C"/>
</radialGradient>
<clipPath id="clip0">
<rect width="263" height="65" fill="white"/>
</clipPath>
</defs>
</svg>
